<svg width="621" height="596" viewBox="0 0 621 596" fill="none" xmlns="http://www.w3.org/2000/svg">
<circle cx="310" cy="216" r="215" stroke="white" stroke-width="2"/>
<path d="M145.5 417.5C145.5 394.7 135.5 385.667 130.5 384L136.5 445C140.5 464.6 142.833 465.5 143.5 463.5C144.167 457.667 145.5 440.3 145.5 417.5Z" fill="#363636"/>
<path d="M474 417.5C474.4 395.5 484.5 386.667 489.5 385L484.5 445C482.125 462.515 479.971 466.242 478.609 465.5C478.135 465.242 477.758 464.445 477.5 463.5C476.167 457.333 473.6 439.5 474 417.5Z" fill="#363636"/>
<path d="M215.5 409C292.3 449 374.167 425.667 405.5 409M489.5 385C484.5 386.667 474.4 395.5 474 417.5C473.6 439.5 476.167 457.333 477.5 463.5C477.758 464.445 478.135 465.242 478.609 465.5C479.971 466.242 482.125 462.515 484.5 445L489.5 385ZM130.5 384C135.5 385.667 145.5 394.7 145.5 417.5C145.5 440.3 144.167 457.667 143.5 463.5C142.833 465.5 140.5 464.6 136.5 445L130.5 384Z" stroke="black"/>
<path d="M607.316 291.776C603.431 295.701 579.793 305.561 568.459 310C557.306 348.333 522.5 430.2 472.5 451C461.167 440.167 434.8 412.2 420 387L458 354C464.582 362.667 478.821 382.7 483.123 393.5C488.249 386.382 495.91 377.021 505 369C516.67 356.109 542.508 324.299 552.5 300.187C554.582 294.579 559.994 282.243 564.99 277.757C568.459 272.383 575.398 261.075 575.398 258.832C576.786 262.57 578.451 271.869 574.01 279.159C577.017 277.29 583.724 273.551 586.5 273.551C589.849 265.393 598.365 248.863 608.704 239.289C610.505 237.621 612.361 236.165 614.255 235C613.916 237.336 613.346 241.545 612.683 246.916C611.887 253.362 610.958 261.482 610.138 270.047C615.075 264.927 618.789 262.779 620.5 262.336L607.316 291.776Z" fill="#FFCD2B"/>
<path d="M571.235 291.776C575.676 285.047 592.051 283.364 599.684 283.364C603.517 277.571 607.065 273.233 610.138 270.047M610.138 270.047C615.075 264.927 618.789 262.779 620.5 262.336L607.316 291.776C603.431 295.701 579.793 305.561 568.459 310C557.306 348.333 522.5 430.2 472.5 451C461.167 440.167 434.8 412.2 420 387L458 354C464.582 362.667 478.821 382.7 483.123 393.5M610.138 270.047C610.958 261.482 611.887 253.362 612.683 246.916M612.683 246.916C613.346 241.545 613.916 237.336 614.255 235C612.361 236.165 610.505 237.621 608.704 239.289M612.683 246.916C608.581 253.692 599.822 269.346 597.602 277.757M608.704 239.289C598.365 248.863 589.849 265.393 586.5 273.551C583.724 273.551 577.017 277.29 574.01 279.159C578.451 271.869 576.786 262.57 575.398 258.832C575.398 261.075 568.459 272.383 564.99 277.757C559.994 282.243 554.582 294.579 552.5 300.187C542.508 324.299 516.67 356.109 505 369C495.91 377.021 488.249 386.382 483.123 393.5M608.704 239.289C605.697 243.7 598.157 256.449 592.051 272.15M477.5 402C478.661 400.01 480.58 397.031 483.123 393.5" stroke="black"/>
<path d="M13.1837 291.776C17.0694 295.701 40.7075 305.561 52.0408 310C63.1939 348.333 98 430.2 148 451C159.333 440.167 185.7 412.2 200.5 387L162.5 354C155.918 362.667 141.679 382.7 137.377 393.5C132.251 386.382 124.59 377.021 115.5 369C103.83 356.109 77.9918 324.299 68 300.187C65.9184 294.579 60.5061 282.243 55.5102 277.757C52.0408 272.383 45.102 261.075 45.102 258.832C43.7143 262.57 42.049 271.869 46.4898 279.159C43.483 277.29 36.7755 273.551 34 273.551C30.6513 265.393 22.1355 248.863 11.7959 239.289C9.99502 237.621 8.13879 236.165 6.2449 235C6.58382 237.336 7.15446 241.545 7.81738 246.916C8.61302 253.362 9.54159 261.482 10.362 270.047C5.4246 264.927 1.71066 262.779 0 262.336L13.1837 291.776Z" fill="#FFCD2B"/>
<path d="M49.2653 291.776C44.8245 285.047 28.449 283.364 20.8163 283.364C16.9829 277.571 13.4354 273.233 10.362 270.047M10.362 270.047C5.4246 264.927 1.71066 262.779 0 262.336L13.1837 291.776C17.0694 295.701 40.7075 305.561 52.0408 310C63.1939 348.333 98 430.2 148 451C159.333 440.167 185.7 412.2 200.5 387L162.5 354C155.918 362.667 141.679 382.7 137.377 393.5M10.362 270.047C9.54159 261.482 8.61302 253.362 7.81738 246.916M7.81738 246.916C7.15446 241.545 6.58382 237.336 6.2449 235C8.13879 236.165 9.99502 237.621 11.7959 239.289M7.81738 246.916C11.9191 253.692 20.6776 269.346 22.898 277.757M11.7959 239.289C22.1355 248.863 30.6513 265.393 34 273.551C36.7755 273.551 43.483 277.29 46.4898 279.159C42.049 271.869 43.7143 262.57 45.102 258.832C45.102 261.075 52.0408 272.383 55.5102 277.757C60.5061 282.243 65.9184 294.579 68 300.187C77.9918 324.299 103.83 356.109 115.5 369C124.59 377.021 132.251 386.382 137.377 393.5M11.7959 239.289C14.8027 243.7 22.3429 256.449 28.449 272.15M143 402C141.839 400.01 139.92 397.031 137.377 393.5" stroke="black"/>
<path d="M226 258.5C223.667 204.833 237.7 97.3 312.5 96.5C315.833 91.5 326.2 81.5 341 81.5C345.167 82.1667 351.9 86.1 345.5 96.5C344.667 99.8333 344 106.8 348 108C363 116.333 394.5 158.1 400.5 258.5C409.833 245.5 437 233.5 457.5 287.5L489.5 385C484.5 386.667 474.4 395.5 474 417.5C473.6 439.5 476.167 457.333 477.5 463.5C477.688 464.189 477.939 464.799 478.245 465.179C478.367 465.287 478.488 465.394 478.609 465.5C478.48 465.43 478.359 465.321 478.245 465.179C456.727 446.15 411.637 400.615 400.5 368L405.5 409C374.167 425.667 292.3 449 215.5 409L221.5 368C190.7 424.4 156.667 455.167 143.5 463.5C144.167 457.667 145.5 440.3 145.5 417.5C145.5 394.7 135.5 385.667 130.5 384L171 287.5C189.4 236.3 215.333 246.833 226 258.5Z" fill="#838383"/>
<path d="M143.5 463.5C144.167 457.667 145.5 440.3 145.5 417.5C145.5 394.7 135.5 385.667 130.5 384L171 287.5C189.4 236.3 215.333 246.833 226 258.5C223.667 204.833 237.7 97.3 312.5 96.5C315.833 91.5 326.2 81.5 341 81.5C345.167 82.1667 351.9 86.1 345.5 96.5C344.667 99.8333 344 106.8 348 108C363 116.333 394.5 158.1 400.5 258.5C409.833 245.5 437 233.5 457.5 287.5L489.5 385C484.5 386.667 474.4 395.5 474 417.5C473.6 439.5 476.167 457.333 477.5 463.5C477.758 464.445 478.135 465.242 478.609 465.5M143.5 463.5C142.833 465.5 140.5 464.6 136.5 445M143.5 463.5C156.667 455.167 190.7 424.4 221.5 368L215.5 409C292.3 449 374.167 425.667 405.5 409L400.5 368C411.7 400.8 457.239 446.667 478.609 465.5M484.5 445C482.125 462.515 479.971 466.242 478.609 465.5" stroke="#838383"/>
<path d="M253 204.5C252.6 252.9 292.5 279 312.5 286C352.5 275.2 366.167 227.167 368 204.5C364 142.1 329.333 127.167 312.5 127.5C266.1 125.5 253.5 178 253 204.5Z" fill="#363636" stroke="black"/>
<circle cx="310" cy="202" r="55" fill="#FFCD2B" stroke="#FFC225" stroke-width="2"/>
<path d="M310.755 220.795C313.912 220.795 316.66 219.848 318.996 217.954C321.333 216.028 322.627 213.659 322.88 210.849H331.168C330.979 214.828 329.321 218.411 326.195 221.601C323.069 224.758 319.233 226.747 314.686 227.568V238.604H305.924V227.521C300.272 226.447 295.867 223.669 292.709 219.185C289.552 214.701 287.973 208.986 287.973 202.04V200.382C287.973 193.688 289.568 188.099 292.757 183.615C295.946 179.1 300.335 176.321 305.924 175.279V164.575H314.686V175.137C319.422 175.863 323.306 177.9 326.337 181.247C329.369 184.594 330.979 188.636 331.168 193.372H322.88C322.627 190.057 321.364 187.341 319.091 185.226C316.849 183.078 314.07 182.005 310.755 182.005C306.303 182.005 302.845 183.615 300.382 186.836C297.951 190.025 296.735 194.651 296.735 200.713V202.371C296.735 208.276 297.951 212.823 300.382 216.012C302.845 219.201 306.303 220.795 310.755 220.795Z" fill="#DA9D00"/>
<ellipse cx="288" cy="189.5" rx="8" ry="12.5" fill="black"/>
<ellipse cx="332" cy="189.5" rx="8" ry="12.5" fill="black"/>
<path d="M299.5 232C303.667 228.833 315.7 222.9 330.5 224.5" stroke="black" stroke-width="3"/>
<path d="M191.113 118.064C190.659 116.445 190.814 114.958 191.575 113.602C192.32 112.185 193.502 111.249 195.121 110.796C199.23 109.644 202.26 107.754 204.21 105.126C206.16 102.498 206.567 99.1597 205.433 95.1123C204.561 91.9989 202.716 89.7288 199.898 88.3021C197.081 86.8755 193.991 86.6332 190.628 87.5755C187.204 88.5352 184.507 90.5334 182.537 93.5702C181.426 95.3589 180.062 96.48 178.443 96.9337C177.26 97.2653 176.096 97.1883 174.953 96.7028C172.985 95.9111 171.765 94.6747 171.294 92.9934C170.893 91.5613 171.118 90.0879 171.97 88.5732C173.566 85.6411 175.684 83.1337 178.323 81.0507C181.008 78.8881 184.063 77.3269 187.488 76.3672C191.722 75.1807 195.853 75.064 199.881 76.0172C203.909 76.9703 207.43 78.8714 210.445 81.7203C213.442 84.507 215.507 87.924 216.642 91.9714C218.317 97.9492 217.93 103.161 215.483 107.608C213.035 112.055 209.1 115.508 203.678 117.968C203.402 118.179 203.29 118.379 203.342 118.565L204.311 122.021C204.764 123.64 204.619 125.159 203.874 126.576C203.112 127.931 201.922 128.836 200.303 129.289C198.684 129.743 197.197 129.589 195.842 128.827C194.469 128.003 193.556 126.781 193.102 125.162L191.113 118.064ZM204.521 146.139C202.715 146.645 201.183 146.571 199.925 145.916C198.712 145.181 197.853 143.911 197.347 142.105L196.902 140.518C196.396 138.712 196.479 137.211 197.151 136.015C197.868 134.74 199.13 133.849 200.935 133.343L202.149 133.003C203.955 132.497 205.465 132.611 206.678 133.346C207.936 134 208.818 135.231 209.324 137.036L209.769 138.624C210.275 140.43 210.169 141.971 209.452 143.246C208.78 144.442 207.541 145.293 205.735 145.799L204.521 146.139Z" fill="white"/>
<path d="M421.665 115.251C422.001 113.603 422.817 112.35 424.113 111.492C425.423 110.571 426.901 110.278 428.549 110.614C432.731 111.465 436.289 111.167 439.224 109.718C442.159 108.27 444.045 105.486 444.884 101.368C445.529 98.1992 444.924 95.3372 443.068 92.7817C441.213 90.2262 438.574 88.6001 435.152 87.9035C431.667 87.1939 428.355 87.7405 425.216 89.5433C423.412 90.6277 421.686 91.0022 420.038 90.6668C418.834 90.4217 417.834 89.8222 417.039 88.8683C415.649 87.2655 415.128 85.6087 415.477 83.8978C415.774 82.4403 416.646 81.2322 418.096 80.2733C420.854 78.3932 423.883 77.1291 427.183 76.481C430.559 75.7824 433.989 75.7879 437.474 76.4974C441.783 77.3747 445.512 79.1567 448.661 81.8435C451.809 84.5303 454.074 87.8292 455.456 91.7401C456.85 95.5876 457.128 99.5708 456.29 103.69C455.051 109.773 452.328 114.234 448.121 117.073C443.913 119.912 438.836 121.188 432.889 120.901C432.546 120.963 432.355 121.09 432.317 121.28L431.601 124.797C431.265 126.444 430.443 127.729 429.133 128.65C427.837 129.508 426.365 129.769 424.717 129.434C423.07 129.098 421.817 128.282 420.959 126.986C420.114 125.626 419.859 124.122 420.195 122.474L421.665 115.251ZM420.778 146.351C418.941 145.977 417.612 145.211 416.791 144.054C416.047 142.847 415.862 141.324 416.236 139.487L416.565 137.871C416.939 136.033 417.698 134.736 418.842 133.979C420.063 133.171 421.592 132.955 423.429 133.329L424.665 133.58C426.503 133.955 427.793 134.745 428.538 135.953C429.358 137.11 429.581 138.607 429.207 140.445L428.878 142.06C428.504 143.898 427.707 145.221 426.486 146.028C425.342 146.785 423.852 146.976 422.014 146.602L420.778 146.351Z" fill="white"/>
<path d="M53.216 527.6C59.744 527.6 64.88 529.16 68.624 532.28C72.368 535.4 74.24 539.696 74.24 545.168C74.24 550.64 72.368 554.936 68.624 558.056C64.88 561.176 59.744 562.736 53.216 562.736H40.76V578H33.56V527.6H53.216ZM53 556.472C57.56 556.472 61.04 555.512 63.44 553.592C65.84 551.624 67.04 548.816 67.04 545.168C67.04 541.52 65.84 538.736 63.44 536.816C61.04 534.848 57.56 533.864 53 533.864H40.76V556.472H53ZM97.3543 539.48C102.634 539.48 106.666 540.776 109.45 543.368C112.282 545.96 113.698 549.824 113.698 554.96V578H107.146V572.96C105.994 574.736 104.338 576.104 102.178 577.064C100.066 577.976 97.5463 578.432 94.6183 578.432C90.3463 578.432 86.9143 577.4 84.3223 575.336C81.7783 573.272 80.5063 570.56 80.5063 567.2C80.5063 563.84 81.7303 561.152 84.1783 559.136C86.6263 557.072 90.5143 556.04 95.8423 556.04H106.786V554.672C106.786 551.696 105.922 549.416 104.194 547.832C102.466 546.248 99.9223 545.456 96.5623 545.456C94.3063 545.456 92.0983 545.84 89.9383 546.608C87.7783 547.328 85.9543 548.312 84.4663 549.56L81.5863 544.376C83.5543 542.792 85.9063 541.592 88.6423 540.776C91.3783 539.912 94.2823 539.48 97.3543 539.48ZM95.7703 573.104C98.4103 573.104 100.69 572.528 102.61 571.376C104.53 570.176 105.922 568.496 106.786 566.336V561.008H96.1303C90.2743 561.008 87.3463 562.976 87.3463 566.912C87.3463 568.832 88.0903 570.344 89.5783 571.448C91.0663 572.552 93.1303 573.104 95.7703 573.104ZM163.204 539.84V572.816C163.204 579.488 161.548 584.408 158.236 587.576C154.924 590.792 149.98 592.4 143.404 592.4C139.804 592.4 136.372 591.896 133.108 590.888C129.844 589.928 127.204 588.536 125.188 586.712L128.5 581.384C130.276 582.92 132.46 584.12 135.052 584.984C137.692 585.896 140.404 586.352 143.188 586.352C147.652 586.352 150.94 585.296 153.052 583.184C155.212 581.072 156.292 577.856 156.292 573.536V570.512C154.66 572.48 152.644 573.968 150.244 574.976C147.892 575.936 145.324 576.416 142.54 576.416C138.892 576.416 135.58 575.648 132.604 574.112C129.676 572.528 127.372 570.344 125.692 567.56C124.012 564.728 123.172 561.512 123.172 557.912C123.172 554.312 124.012 551.12 125.692 548.336C127.372 545.504 129.676 543.32 132.604 541.784C135.58 540.248 138.892 539.48 142.54 539.48C145.42 539.48 148.084 540.008 150.532 541.064C153.028 542.12 155.068 543.68 156.652 545.744V539.84H163.204ZM143.332 570.368C145.828 570.368 148.06 569.84 150.028 568.784C152.044 567.728 153.604 566.264 154.708 564.392C155.86 562.472 156.436 560.312 156.436 557.912C156.436 554.216 155.212 551.24 152.764 548.984C150.316 546.68 147.172 545.528 143.332 545.528C139.444 545.528 136.276 546.68 133.828 548.984C131.38 551.24 130.156 554.216 130.156 557.912C130.156 560.312 130.708 562.472 131.812 564.392C132.964 566.264 134.524 567.728 136.492 568.784C138.508 569.84 140.788 570.368 143.332 570.368ZM210.899 559.136C210.899 559.664 210.851 560.36 210.755 561.224H179.795C180.227 564.584 181.691 567.296 184.187 569.36C186.731 571.376 189.875 572.384 193.619 572.384C198.179 572.384 201.851 570.848 204.635 567.776L208.451 572.24C206.723 574.256 204.563 575.792 201.971 576.848C199.427 577.904 196.571 578.432 193.403 578.432C189.371 578.432 185.795 577.616 182.675 575.984C179.555 574.304 177.131 571.976 175.403 569C173.723 566.024 172.883 562.664 172.883 558.92C172.883 555.224 173.699 551.888 175.331 548.912C177.011 545.936 179.291 543.632 182.171 542C185.099 540.32 188.387 539.48 192.035 539.48C195.683 539.48 198.923 540.32 201.755 542C204.635 543.632 206.867 545.936 208.451 548.912C210.083 551.888 210.899 555.296 210.899 559.136ZM192.035 545.312C188.723 545.312 185.939 546.32 183.683 548.336C181.475 550.352 180.179 552.992 179.795 556.256H204.275C203.891 553.04 202.571 550.424 200.315 548.408C198.107 546.344 195.347 545.312 192.035 545.312ZM260.209 539.48C265.057 539.48 268.897 540.896 271.729 543.728C274.609 546.512 276.049 550.616 276.049 556.04V578H269.137V556.832C269.137 553.136 268.249 550.352 266.473 548.48C264.697 546.608 262.153 545.672 258.841 545.672C255.097 545.672 252.145 546.776 249.985 548.984C247.825 551.144 246.745 554.264 246.745 558.344V578H239.833V539.84H246.457V545.6C247.849 543.632 249.721 542.12 252.073 541.064C254.473 540.008 257.185 539.48 260.209 539.48ZM305.396 578.432C301.604 578.432 298.196 577.592 295.172 575.912C292.148 574.232 289.772 571.928 288.044 569C286.364 566.024 285.524 562.664 285.524 558.92C285.524 555.176 286.364 551.84 288.044 548.912C289.772 545.936 292.148 543.632 295.172 542C298.196 540.32 301.604 539.48 305.396 539.48C309.188 539.48 312.572 540.32 315.548 542C318.572 543.632 320.924 545.936 322.604 548.912C324.332 551.84 325.196 555.176 325.196 558.92C325.196 562.664 324.332 566.024 322.604 569C320.924 571.928 318.572 574.232 315.548 575.912C312.572 577.592 309.188 578.432 305.396 578.432ZM305.396 572.384C307.844 572.384 310.028 571.832 311.948 570.728C313.916 569.576 315.452 567.992 316.556 565.976C317.66 563.912 318.212 561.56 318.212 558.92C318.212 556.28 317.66 553.952 316.556 551.936C315.452 549.872 313.916 548.288 311.948 547.184C310.028 546.08 307.844 545.528 305.396 545.528C302.948 545.528 300.74 546.08 298.772 547.184C296.852 548.288 295.316 549.872 294.164 551.936C293.06 553.952 292.508 556.28 292.508 558.92C292.508 561.56 293.06 563.912 294.164 565.976C295.316 567.992 296.852 569.576 298.772 570.728C300.74 571.832 302.948 572.384 305.396 572.384ZM356.211 575.768C355.203 576.632 353.955 577.304 352.467 577.784C350.979 578.216 349.443 578.432 347.859 578.432C344.019 578.432 341.043 577.4 338.931 575.336C336.819 573.272 335.763 570.32 335.763 566.48V545.528H329.283V539.84H335.763V531.488H342.675V539.84H353.619V545.528H342.675V566.192C342.675 568.256 343.179 569.84 344.187 570.944C345.243 572.048 346.731 572.6 348.651 572.6C350.763 572.6 352.563 572 354.051 570.8L356.211 575.768ZM397.872 529.832C393.744 529.832 391.68 532.064 391.68 536.528V539.84H402.768V545.528H391.824V578H384.912V545.528H378.432V539.84H384.912V536.456C384.912 532.664 386.016 529.664 388.224 527.456C390.432 525.248 393.528 524.144 397.512 524.144C399.048 524.144 400.488 524.336 401.832 524.72C403.176 525.104 404.328 525.656 405.288 526.376L403.2 531.632C401.616 530.432 399.84 529.832 397.872 529.832ZM425.068 578.432C421.276 578.432 417.868 577.592 414.844 575.912C411.82 574.232 409.444 571.928 407.716 569C406.036 566.024 405.196 562.664 405.196 558.92C405.196 555.176 406.036 551.84 407.716 548.912C409.444 545.936 411.82 543.632 414.844 542C417.868 540.32 421.276 539.48 425.068 539.48C428.86 539.48 432.244 540.32 435.22 542C438.244 543.632 440.596 545.936 442.276 548.912C444.004 551.84 444.868 555.176 444.868 558.92C444.868 562.664 444.004 566.024 442.276 569C440.596 571.928 438.244 574.232 435.22 575.912C432.244 577.592 428.86 578.432 425.068 578.432ZM425.068 572.384C427.516 572.384 429.7 571.832 431.62 570.728C433.588 569.576 435.124 567.992 436.228 565.976C437.332 563.912 437.884 561.56 437.884 558.92C437.884 556.28 437.332 553.952 436.228 551.936C435.124 549.872 433.588 548.288 431.62 547.184C429.7 546.08 427.516 545.528 425.068 545.528C422.62 545.528 420.412 546.08 418.444 547.184C416.524 548.288 414.988 549.872 413.836 551.936C412.732 553.952 412.18 556.28 412.18 558.92C412.18 561.56 412.732 563.912 413.836 565.976C414.988 567.992 416.524 569.576 418.444 570.728C420.412 571.832 422.62 572.384 425.068 572.384ZM489.995 539.84V578H483.443V572.24C482.051 574.208 480.203 575.744 477.899 576.848C475.643 577.904 473.171 578.432 470.483 578.432C465.395 578.432 461.387 577.04 458.459 574.256C455.531 571.424 454.067 567.272 454.067 561.8V539.84H460.979V561.008C460.979 564.704 461.867 567.512 463.643 569.432C465.419 571.304 467.963 572.24 471.275 572.24C474.923 572.24 477.803 571.136 479.915 568.928C482.027 566.72 483.083 563.6 483.083 559.568V539.84H489.995ZM523.53 539.48C528.378 539.48 532.218 540.896 535.05 543.728C537.93 546.512 539.37 550.616 539.37 556.04V578H532.458V556.832C532.458 553.136 531.57 550.352 529.794 548.48C528.018 546.608 525.474 545.672 522.162 545.672C518.418 545.672 515.466 546.776 513.306 548.984C511.146 551.144 510.066 554.264 510.066 558.344V578H503.154V539.84H509.778V545.6C511.17 543.632 513.042 542.12 515.394 541.064C517.794 540.008 520.506 539.48 523.53 539.48ZM588.372 524.576V578H581.748V571.952C580.212 574.064 578.268 575.672 575.916 576.776C573.564 577.88 570.972 578.432 568.14 578.432C564.444 578.432 561.132 577.616 558.204 575.984C555.276 574.352 552.972 572.072 551.292 569.144C549.66 566.168 548.844 562.76 548.844 558.92C548.844 555.08 549.66 551.696 551.292 548.768C552.972 545.84 555.276 543.56 558.204 541.928C561.132 540.296 564.444 539.48 568.14 539.48C570.876 539.48 573.396 540.008 575.7 541.064C578.004 542.072 579.924 543.584 581.46 545.6V524.576H588.372ZM568.716 572.384C571.116 572.384 573.3 571.832 575.268 570.728C577.236 569.576 578.772 567.992 579.876 565.976C580.98 563.912 581.532 561.56 581.532 558.92C581.532 556.28 580.98 553.952 579.876 551.936C578.772 549.872 577.236 548.288 575.268 547.184C573.3 546.08 571.116 545.528 568.716 545.528C566.268 545.528 564.06 546.08 562.092 547.184C560.172 548.288 558.636 549.872 557.484 551.936C556.38 553.952 555.828 556.28 555.828 558.92C555.828 561.56 556.38 563.912 557.484 565.976C558.636 567.992 560.172 569.576 562.092 570.728C564.06 571.832 566.268 572.384 568.716 572.384Z" fill="white"/>
</svg>
