<svg width="548" height="606" viewBox="0 0 548 606" fill="none" xmlns="http://www.w3.org/2000/svg">
<path d="M372.075 379.582H181.615L167.222 454.226C264.962 502.695 356.566 471.074 390.151 449.205L372.075 379.582Z" fill="#424242" stroke="black"/>
<path d="M201.699 220.586C188.086 182.204 175.188 96.5356 232.494 60.9205C243.093 56.0112 262.954 51.2134 288.059 51.2134C291.517 48.2008 300.51 41.7741 308.812 40.1674C317.113 38.5607 319.635 46.8619 319.858 51.2134C317.961 53.5565 315.305 59.7155 319.858 65.6067C332.131 76.8759 356.209 112.937 354.335 167.029C352.46 221.121 358.017 231.52 361.029 229.958C368.393 220.586 412.243 234.644 412.243 267.113L376.761 409.038C369.881 453.911 315.603 443.046 299.096 397.657L246.552 432.469C194.335 469.155 173.024 432.134 168.895 409.038L160.192 334.059C148.41 251.849 187.515 234.421 208.54 235.983C205.299 229.705 202.846 223.758 201.699 220.586Z" fill="#424242"/>
<path d="M332.243 360.167C336.984 350.008 336.086 340.741 333.713 334.059M332.243 311.632L333.713 334.059M333.713 334.059C332.333 330.173 330.454 327.161 328.895 325.356C327.556 344.904 305.576 370.098 294.753 380.251C295.642 386.441 297.133 392.26 299.096 397.657M208.54 235.983C205.299 229.705 202.846 223.758 201.699 220.586C188.086 182.204 175.188 96.5356 232.494 60.9205C243.093 56.0112 262.954 51.2134 288.059 51.2134C291.517 48.2008 300.51 41.7741 308.812 40.1674C317.113 38.5607 319.635 46.8619 319.858 51.2134C317.961 53.5565 315.305 59.7155 319.858 65.6067C332.131 76.8759 356.209 112.937 354.335 167.029C352.46 221.121 358.017 231.52 361.029 229.958C368.393 220.586 412.243 234.644 412.243 267.113L376.761 409.038C369.881 453.911 315.603 443.046 299.096 397.657M208.54 235.983C210.658 240.086 213.112 244.33 215.757 248.033L208.54 235.983ZM208.54 235.983C187.515 234.421 148.41 251.849 160.192 334.059L168.895 409.038C173.024 432.134 194.335 469.155 246.552 432.469L299.096 397.657" stroke="black"/>
<path d="M332.912 323.347C329.967 320.134 325.66 322.901 323.875 324.686L325.213 328.703L328.895 325.356C330.234 327.141 333.046 331.314 333.582 333.724L332.912 323.347Z" fill="#FFCD2B" stroke="black"/>
<path d="M294.753 380.251C305.018 370.879 326.218 346.845 328.895 325.69C317.961 334.951 295.824 358.828 294.753 380.251Z" fill="black" stroke="black"/>
<path d="M242.87 240C218.212 198.94 187.573 110.527 262.285 85.3557C299.662 105.774 348.109 165.289 242.87 240Z" fill="black" stroke="black"/>
<path d="M298.351 119.48L284.594 111.611L225.967 205.856L241.983 213.738C243.89 214.248 245.776 214.658 247.625 214.982C251.562 215.672 255.325 215.972 258.736 216.024C264.283 216.109 268.899 215.539 271.821 214.927C272.397 214.806 272.906 214.684 273.344 214.565C277.155 213.519 280.69 212.184 283.943 210.663C287.038 209.216 289.879 207.601 292.459 205.907C295.448 203.944 298.089 201.875 300.373 199.84C303.017 197.484 305.184 195.173 306.86 193.122C308.206 191.476 309.235 189.998 309.943 188.801C310.477 188.015 311.071 187.038 311.69 185.895C313.057 183.369 314.545 180.029 315.768 176.135C316.766 172.957 317.588 169.41 318.024 165.634C318.396 162.419 318.489 159.038 318.174 155.577C318.054 154.268 317.877 152.947 317.634 151.62C317.185 149.172 316.553 146.823 315.785 144.584C314.653 141.283 313.225 138.223 311.655 135.444C310.159 132.798 308.535 130.407 306.914 128.304C303.708 124.147 300.513 121.118 298.351 119.48Z" fill="#FBB502"/>
<path d="M301.344 125.99L306.914 128.304M306.914 128.304C303.708 124.147 300.513 121.118 298.351 119.48L284.594 111.611L225.967 205.856L241.983 213.738C243.89 214.248 245.776 214.658 247.625 214.982M306.914 128.304C308.535 130.407 310.159 132.798 311.655 135.444M306.729 134.028L311.655 135.444M311.655 135.444C313.225 138.223 314.653 141.283 315.785 144.584M310.255 142.921L315.785 144.584M315.785 144.584C316.553 146.823 317.185 149.172 317.634 151.62C317.877 152.947 318.054 154.268 318.174 155.577M311.589 154.399L318.174 155.577M318.174 155.577C318.489 159.038 318.396 162.419 318.024 165.634M311.194 164.569L318.024 165.634M318.024 165.634C317.588 169.41 316.766 172.957 315.768 176.135M308.541 174.726L315.768 176.135M315.768 176.135C314.545 180.029 313.057 183.369 311.69 185.895M304.094 184.656L311.69 185.895M311.69 185.895C311.071 187.038 310.477 188.015 309.943 188.801C309.235 189.998 308.206 191.476 306.86 193.122M297.52 192.41L306.86 193.122M306.86 193.122C305.184 195.173 303.017 197.484 300.373 199.84M291.011 199.082L300.373 199.84M300.373 199.84C298.089 201.875 295.448 203.944 292.459 205.907M282.044 205.308L292.459 205.907M292.459 205.907C289.879 207.601 287.038 209.216 283.943 210.663M272.08 209.363L283.943 210.663M283.943 210.663C280.69 212.184 277.155 213.519 273.344 214.565C272.906 214.684 272.397 214.806 271.821 214.927M261.516 212.117L271.821 214.927M271.821 214.927C268.899 215.539 264.283 216.109 258.736 216.024M250.886 212.273L258.736 216.024M258.736 216.024C255.325 215.972 251.562 215.672 247.625 214.982M243.444 212.015L247.625 214.982" stroke="#FFC225"/>
<path d="M278.306 206.977C249.984 219.998 217.289 209.091 205.205 182.807C193.121 156.523 206.126 124.605 234.448 111.584C262.77 98.5631 295.464 109.47 307.549 135.754C319.633 162.038 306.627 193.956 278.306 206.977Z" fill="#FFCD2B" stroke="#FFC225" stroke-width="2"/>
<path d="M249.58 173.166C251.92 173.586 254.1 173.149 256.12 171.854C258.144 170.533 259.463 168.699 260.077 166.352L266.22 167.454C265.475 170.799 263.702 173.615 260.901 175.901C258.104 178.16 254.959 179.336 251.464 179.427L249.787 188.776L243.294 187.611L244.978 178.222C240.953 176.561 238.111 173.621 236.452 169.403C234.793 165.185 234.492 160.133 235.548 154.248L235.8 152.844C236.817 147.173 238.848 142.65 241.893 139.275C244.942 135.874 248.617 134.104 252.917 133.964L254.544 124.896L261.038 126.06L259.432 135.008C262.832 136.253 265.401 138.495 267.138 141.733C268.876 144.972 269.455 148.61 268.876 152.648L262.733 151.546C263.05 148.703 262.527 146.235 261.164 144.14C259.828 142.023 257.932 140.745 255.475 140.304C252.176 139.712 249.369 140.617 247.054 143.018C244.768 145.396 243.164 149.153 242.243 154.289L241.991 155.694C241.093 160.696 241.303 164.71 242.62 167.735C243.961 170.764 246.281 172.574 249.58 173.166Z" fill="#DA9D00"/>
<ellipse cx="233.388" cy="143.096" rx="8.29642" ry="12.9424" transform="rotate(10.1665 233.388 143.096)" fill="black"/>
<ellipse cx="274.037" cy="146.348" rx="8.29642" ry="12.9424" transform="rotate(10.1665 274.037 146.348)" fill="black"/>
<path d="M242.87 181.616C248.003 178.715 260.276 173.783 268.31 177.264" stroke="black" stroke-width="3"/>
<path d="M269.649 128.536C272.55 128.982 280.427 129.004 288.728 125.523" stroke="black" stroke-width="2"/>
<path d="M243.874 122.176C240.75 119.944 232.761 117.155 225.799 123.849" stroke="black" stroke-width="2"/>
<path d="M292.113 220.088C297.73 235.064 296.794 236.468 296.794 243.488C304.768 265.696 317.742 303.481 326.928 334.393C323.33 348.586 306.265 368.87 298.182 377.238C285.712 340.741 279.743 293.774 278.071 263.143C254.853 262.769 242.496 256.435 239.219 253.316C236.598 250.695 238.127 245.672 239.219 243.488C237.347 238.246 239.999 233.504 241.56 231.788C238.564 226.172 243.744 221.648 246.709 220.088L233.602 212.6L220.028 204.645L207.389 197.157C209.261 187.797 219.247 191.853 224.24 195.285C226.113 195.659 233.602 199.809 237.347 201.837C241.466 202.96 247.177 206.205 250.921 207.921C269.645 216.5 274.638 212.756 276.198 211.197C278.071 189.669 283.688 189.201 290.709 192.009C289.305 199.497 290.709 212.601 292.113 220.088Z" fill="#FFCD2B" stroke="black"/>
<path d="M208.393 390.962C210.174 388.56 214.433 384.474 221.782 379.106M288.728 342.762C255.556 357.243 234.234 370.012 221.782 379.106M216.427 330.042L221.782 379.106" stroke="black"/>
<circle cx="274" cy="240" r="239" stroke="black" stroke-width="2"/>
<path d="M160.191 104.191C159.819 102.88 159.946 101.676 160.57 100.578C161.18 99.4303 162.149 98.6726 163.476 98.3052C166.844 97.3725 169.327 95.8419 170.925 93.7133C172.523 91.5848 172.857 88.8816 171.927 85.6037C171.212 83.0823 169.7 81.2438 167.391 80.0884C165.082 78.933 162.55 78.7368 159.794 79.4999C156.987 80.2771 154.777 81.8955 153.163 84.3548C152.253 85.8034 151.134 86.7114 149.807 87.0788C148.838 87.3473 147.884 87.285 146.947 86.8918C145.334 86.2507 144.335 85.2493 143.949 83.8877C143.62 82.7279 143.804 81.5346 144.502 80.308C145.81 77.9334 147.546 75.9026 149.71 74.2157C151.91 72.4643 154.413 71.1999 157.22 70.4227C160.69 69.4618 164.076 69.3673 167.377 70.1392C170.678 70.9112 173.564 72.4507 176.034 74.758C178.491 77.0148 180.184 79.7822 181.113 83.06C182.486 87.9012 182.169 92.1224 180.163 95.7237C178.158 99.3249 174.933 102.122 170.489 104.113C170.262 104.285 170.171 104.446 170.214 104.598L171.007 107.396C171.379 108.708 171.26 109.937 170.65 111.085C170.025 112.183 169.05 112.915 167.723 113.283C166.396 113.65 165.177 113.525 164.067 112.908C162.942 112.241 162.193 111.251 161.822 109.94L160.191 104.191ZM171.18 126.929C169.7 127.338 168.444 127.278 167.413 126.748C166.419 126.153 165.715 125.124 165.3 123.662L164.935 122.376C164.521 120.914 164.589 119.698 165.14 118.73C165.727 117.697 166.761 116.975 168.241 116.566L169.236 116.29C170.716 115.88 171.953 115.973 172.947 116.568C173.978 117.098 174.701 118.094 175.116 119.557L175.481 120.843C175.895 122.305 175.809 123.553 175.221 124.586C174.67 125.554 173.655 126.243 172.175 126.653L171.18 126.929Z" fill="black"/>
<path d="M369.465 101.835C369.643 100.483 370.235 99.4275 371.243 98.6668C372.258 97.8542 373.447 97.5418 374.811 97.7297C378.273 98.2066 381.159 97.784 383.47 96.4619C385.78 95.1398 387.157 92.7898 387.601 89.4117C387.942 86.8132 387.282 84.5264 385.619 82.5513C383.956 80.5761 381.708 79.3935 378.875 79.0033C375.99 78.6059 373.319 79.2169 370.863 80.8364C369.454 81.8063 368.068 82.1973 366.704 82.0095C365.707 81.8722 364.856 81.4376 364.151 80.7055C362.924 79.4783 362.403 78.163 362.587 76.7598C362.744 75.5645 363.386 74.5418 364.513 73.6916C366.654 72.0289 369.052 70.8512 371.706 70.1586C374.42 69.4213 377.22 69.2513 380.105 69.6487C383.672 70.14 386.818 71.3935 389.544 73.4092C392.27 75.4249 394.31 77.9812 395.666 81.078C397.028 84.1228 397.487 87.3342 397.043 90.7123C396.387 95.7014 394.425 99.4525 391.158 101.965C387.89 104.478 383.821 105.77 378.952 105.84C378.676 105.908 378.528 106.02 378.508 106.175L378.128 109.06C377.951 110.411 377.355 111.493 376.34 112.306C375.332 113.066 374.146 113.353 372.782 113.165C371.418 112.977 370.349 112.38 369.573 111.374C368.804 110.315 368.509 109.11 368.686 107.759L369.465 101.835ZM370.554 127.065C369.033 126.855 367.904 126.303 367.167 125.408C366.49 124.468 366.25 123.244 366.448 121.737L366.622 120.412C366.821 118.905 367.364 117.816 368.254 117.144C369.202 116.428 370.437 116.175 371.958 116.385L372.981 116.526C374.503 116.735 375.602 117.31 376.279 118.25C377.016 119.145 377.286 120.346 377.088 121.853L376.913 123.178C376.715 124.686 376.142 125.797 375.193 126.513C374.304 127.184 373.099 127.415 371.577 127.206L370.554 127.065Z" fill="black"/>
<path d="M28.44 588.576C21.72 588.576 16.488 586.656 12.744 582.816C9 578.976 7.128 573.456 7.128 566.256V537.6H14.328V565.968C14.328 576.768 19.056 582.168 28.512 582.168C33.12 582.168 36.648 580.848 39.096 578.208C41.544 575.52 42.768 571.44 42.768 565.968V537.6H49.752V566.256C49.752 573.504 47.88 579.048 44.136 582.888C40.392 586.68 35.16 588.576 28.44 588.576ZM74.4491 588.432C71.3291 588.432 68.3291 588.024 65.4491 587.208C62.5691 586.344 60.3131 585.264 58.6811 583.968L61.5611 578.496C63.2411 579.696 65.2811 580.656 67.6811 581.376C70.0811 582.096 72.5051 582.456 74.9531 582.456C81.0011 582.456 84.0251 580.728 84.0251 577.272C84.0251 576.12 83.6171 575.208 82.8011 574.536C81.9851 573.864 80.9531 573.384 79.7051 573.096C78.5051 572.76 76.7771 572.4 74.5211 572.016C71.4491 571.536 68.9291 570.984 66.9611 570.36C65.0411 569.736 63.3851 568.68 61.9931 567.192C60.6011 565.704 59.9051 563.616 59.9051 560.928C59.9051 557.472 61.3451 554.712 64.2251 552.648C67.1051 550.536 70.9691 549.48 75.8171 549.48C78.3611 549.48 80.9051 549.792 83.4491 550.416C85.9931 551.04 88.0811 551.88 89.7131 552.936L86.7611 558.408C83.6411 556.392 79.9691 555.384 75.7451 555.384C72.8171 555.384 70.5851 555.864 69.0491 556.824C67.5131 557.784 66.7451 559.056 66.7451 560.64C66.7451 561.888 67.1771 562.872 68.0411 563.592C68.9051 564.312 69.9611 564.84 71.2091 565.176C72.5051 565.512 74.3051 565.896 76.6091 566.328C79.6811 566.856 82.1531 567.432 84.0251 568.056C85.9451 568.632 87.5771 569.64 88.9211 571.08C90.2651 572.52 90.9371 574.536 90.9371 577.128C90.9371 580.584 89.4491 583.344 86.4731 585.408C83.5451 587.424 79.5371 588.432 74.4491 588.432ZM134.063 569.136C134.063 569.664 134.015 570.36 133.919 571.224H102.959C103.391 574.584 104.855 577.296 107.351 579.36C109.895 581.376 113.039 582.384 116.783 582.384C121.343 582.384 125.015 580.848 127.799 577.776L131.615 582.24C129.887 584.256 127.727 585.792 125.135 586.848C122.591 587.904 119.735 588.432 116.567 588.432C112.535 588.432 108.959 587.616 105.839 585.984C102.719 584.304 100.295 581.976 98.5674 579C96.8874 576.024 96.0474 572.664 96.0474 568.92C96.0474 565.224 96.8634 561.888 98.4954 558.912C100.175 555.936 102.455 553.632 105.335 552C108.263 550.32 111.551 549.48 115.199 549.48C118.847 549.48 122.087 550.32 124.919 552C127.799 553.632 130.031 555.936 131.615 558.912C133.247 561.888 134.063 565.296 134.063 569.136ZM115.199 555.312C111.887 555.312 109.103 556.32 106.847 558.336C104.639 560.352 103.343 562.992 102.959 566.256H127.439C127.055 563.04 125.735 560.424 123.479 558.408C121.271 556.344 118.511 555.312 115.199 555.312ZM150.285 556.248C151.485 554.04 153.261 552.36 155.613 551.208C157.965 550.056 160.821 549.48 164.181 549.48V556.176C163.797 556.128 163.269 556.104 162.597 556.104C158.853 556.104 155.901 557.232 153.741 559.488C151.629 561.696 150.573 564.864 150.573 568.992V588H143.661V549.84H150.285V556.248ZM212.905 549.48C217.753 549.48 221.593 550.896 224.425 553.728C227.305 556.512 228.745 560.616 228.745 566.04V588H221.833V566.832C221.833 563.136 220.945 560.352 219.169 558.48C217.393 556.608 214.849 555.672 211.537 555.672C207.793 555.672 204.841 556.776 202.681 558.984C200.521 561.144 199.441 564.264 199.441 568.344V588H192.529V549.84H199.153V555.6C200.545 553.632 202.417 552.12 204.769 551.064C207.169 550.008 209.881 549.48 212.905 549.48ZM258.091 588.432C254.299 588.432 250.891 587.592 247.867 585.912C244.843 584.232 242.467 581.928 240.739 579C239.059 576.024 238.219 572.664 238.219 568.92C238.219 565.176 239.059 561.84 240.739 558.912C242.467 555.936 244.843 553.632 247.867 552C250.891 550.32 254.299 549.48 258.091 549.48C261.883 549.48 265.267 550.32 268.243 552C271.267 553.632 273.619 555.936 275.299 558.912C277.027 561.84 277.891 565.176 277.891 568.92C277.891 572.664 277.027 576.024 275.299 579C273.619 581.928 271.267 584.232 268.243 585.912C265.267 587.592 261.883 588.432 258.091 588.432ZM258.091 582.384C260.539 582.384 262.723 581.832 264.643 580.728C266.611 579.576 268.147 577.992 269.251 575.976C270.355 573.912 270.907 571.56 270.907 568.92C270.907 566.28 270.355 563.952 269.251 561.936C268.147 559.872 266.611 558.288 264.643 557.184C262.723 556.08 260.539 555.528 258.091 555.528C255.643 555.528 253.435 556.08 251.467 557.184C249.547 558.288 248.011 559.872 246.859 561.936C245.755 563.952 245.203 566.28 245.203 568.92C245.203 571.56 245.755 573.912 246.859 575.976C248.011 577.992 249.547 579.576 251.467 580.728C253.435 581.832 255.643 582.384 258.091 582.384ZM308.906 585.768C307.898 586.632 306.65 587.304 305.162 587.784C303.674 588.216 302.138 588.432 300.554 588.432C296.714 588.432 293.738 587.4 291.626 585.336C289.514 583.272 288.458 580.32 288.458 576.48V555.528H281.978V549.84H288.458V541.488H295.37V549.84H306.314V555.528H295.37V576.192C295.37 578.256 295.874 579.84 296.882 580.944C297.938 582.048 299.426 582.6 301.346 582.6C303.458 582.6 305.258 582 306.746 580.8L308.906 585.768ZM350.567 539.832C346.439 539.832 344.375 542.064 344.375 546.528V549.84H355.463V555.528H344.519V588H337.607V555.528H331.127V549.84H337.607V546.456C337.607 542.664 338.711 539.664 340.919 537.456C343.127 535.248 346.223 534.144 350.207 534.144C351.743 534.144 353.183 534.336 354.527 534.72C355.871 535.104 357.023 535.656 357.983 536.376L355.895 541.632C354.311 540.432 352.535 539.832 350.567 539.832ZM377.763 588.432C373.971 588.432 370.563 587.592 367.539 585.912C364.515 584.232 362.139 581.928 360.411 579C358.731 576.024 357.891 572.664 357.891 568.92C357.891 565.176 358.731 561.84 360.411 558.912C362.139 555.936 364.515 553.632 367.539 552C370.563 550.32 373.971 549.48 377.763 549.48C381.555 549.48 384.939 550.32 387.915 552C390.939 553.632 393.291 555.936 394.971 558.912C396.699 561.84 397.563 565.176 397.563 568.92C397.563 572.664 396.699 576.024 394.971 579C393.291 581.928 390.939 584.232 387.915 585.912C384.939 587.592 381.555 588.432 377.763 588.432ZM377.763 582.384C380.211 582.384 382.395 581.832 384.315 580.728C386.283 579.576 387.819 577.992 388.923 575.976C390.027 573.912 390.579 571.56 390.579 568.92C390.579 566.28 390.027 563.952 388.923 561.936C387.819 559.872 386.283 558.288 384.315 557.184C382.395 556.08 380.211 555.528 377.763 555.528C375.315 555.528 373.107 556.08 371.139 557.184C369.219 558.288 367.683 559.872 366.531 561.936C365.427 563.952 364.875 566.28 364.875 568.92C364.875 571.56 365.427 573.912 366.531 575.976C367.683 577.992 369.219 579.576 371.139 580.728C373.107 581.832 375.315 582.384 377.763 582.384ZM442.69 549.84V588H436.138V582.24C434.746 584.208 432.898 585.744 430.594 586.848C428.338 587.904 425.866 588.432 423.178 588.432C418.09 588.432 414.082 587.04 411.154 584.256C408.226 581.424 406.762 577.272 406.762 571.8V549.84H413.674V571.008C413.674 574.704 414.562 577.512 416.338 579.432C418.114 581.304 420.658 582.24 423.97 582.24C427.618 582.24 430.498 581.136 432.61 578.928C434.722 576.72 435.778 573.6 435.778 569.568V549.84H442.69ZM476.225 549.48C481.073 549.48 484.913 550.896 487.745 553.728C490.625 556.512 492.065 560.616 492.065 566.04V588H485.153V566.832C485.153 563.136 484.265 560.352 482.489 558.48C480.713 556.608 478.169 555.672 474.857 555.672C471.113 555.672 468.161 556.776 466.001 558.984C463.841 561.144 462.761 564.264 462.761 568.344V588H455.849V549.84H462.473V555.6C463.865 553.632 465.737 552.12 468.089 551.064C470.489 550.008 473.201 549.48 476.225 549.48ZM541.068 534.576V588H534.444V581.952C532.908 584.064 530.964 585.672 528.612 586.776C526.26 587.88 523.668 588.432 520.836 588.432C517.14 588.432 513.828 587.616 510.9 585.984C507.972 584.352 505.668 582.072 503.988 579.144C502.356 576.168 501.54 572.76 501.54 568.92C501.54 565.08 502.356 561.696 503.988 558.768C505.668 555.84 507.972 553.56 510.9 551.928C513.828 550.296 517.14 549.48 520.836 549.48C523.572 549.48 526.092 550.008 528.396 551.064C530.7 552.072 532.62 553.584 534.156 555.6V534.576H541.068ZM521.412 582.384C523.812 582.384 525.996 581.832 527.964 580.728C529.932 579.576 531.468 577.992 532.572 575.976C533.676 573.912 534.228 571.56 534.228 568.92C534.228 566.28 533.676 563.952 532.572 561.936C531.468 559.872 529.932 558.288 527.964 557.184C525.996 556.08 523.812 555.528 521.412 555.528C518.964 555.528 516.756 556.08 514.788 557.184C512.868 558.288 511.332 559.872 510.18 561.936C509.076 563.952 508.524 566.28 508.524 568.92C508.524 571.56 509.076 573.912 510.18 575.976C511.332 577.992 512.868 579.576 514.788 580.728C516.756 581.832 518.964 582.384 521.412 582.384Z" fill="black"/>
</svg>
